<svg width="508" height="202" viewBox="0 0 508 202" fill="none" xmlns="http://www.w3.org/2000/svg">
<rect width="508" height="202" rx="16" fill="white"/>
<path d="M17.088 188.346L16.304 185.434H12.704L11.92 188.346H10L13.264 177.178H15.792L19.056 188.346H17.088ZM14.96 180.762L14.608 178.986H14.384L14.032 180.762L13.184 183.818H15.824L14.96 180.762Z" fill="#0A0A0A"/>
<path d="M25.7178 188.346C25.0458 188.346 24.5604 188.197 24.2618 187.898C23.9738 187.599 23.8298 187.13 23.8298 186.49V176.506H25.7658V186.794H26.7257V188.346H25.7178Z" fill="#0A0A0A"/>
<path d="M29.071 178.682C28.6657 178.682 28.3723 178.597 28.191 178.426C28.0097 178.245 27.919 178.005 27.919 177.706V177.386C27.919 177.087 28.0097 176.853 28.191 176.682C28.3723 176.501 28.6657 176.41 29.071 176.41C29.4763 176.41 29.7697 176.501 29.951 176.682C30.1323 176.853 30.223 177.087 30.223 177.386V177.706C30.223 178.005 30.1323 178.245 29.951 178.426C29.7697 178.597 29.4763 178.682 29.071 178.682ZM28.111 179.994H30.047V188.346H28.111V179.994Z" fill="#0A0A0A"/>
<path d="M38.9743 189.082C38.9743 189.519 38.9049 189.903 38.7663 190.234C38.6383 190.565 38.4196 190.842 38.1103 191.066C37.8009 191.29 37.3903 191.455 36.8783 191.562C36.3663 191.679 35.7369 191.738 34.9902 191.738C34.3289 191.738 33.7743 191.69 33.3263 191.594C32.8783 191.509 32.5156 191.381 32.2383 191.21C31.9609 191.039 31.7636 190.831 31.6462 190.586C31.5289 190.341 31.4703 190.063 31.4703 189.754C31.4703 189.327 31.5876 188.991 31.8223 188.746C32.0569 188.501 32.3929 188.346 32.8302 188.282V187.978C32.4889 187.893 32.2329 187.733 32.0623 187.498C31.9023 187.263 31.8223 186.975 31.8223 186.634C31.8223 186.293 31.9396 186.01 32.1742 185.786C32.4089 185.551 32.7502 185.391 33.1982 185.306V185.098C32.2916 184.65 31.8383 183.829 31.8383 182.634C31.8383 181.727 32.0943 181.029 32.6063 180.538C33.1183 180.047 33.9129 179.802 34.9902 179.802C35.4702 179.802 35.9076 179.877 36.3022 180.026V179.722C36.3022 178.965 36.6649 178.586 37.3903 178.586H38.5583V180.09H36.9423V180.41C37.3369 180.602 37.6356 180.89 37.8383 181.274C38.0409 181.647 38.1423 182.101 38.1423 182.634C38.1423 183.541 37.8863 184.239 37.3743 184.73C36.8729 185.21 36.0782 185.45 34.9902 185.45C34.5529 185.45 34.1476 185.407 33.7743 185.322C33.6249 185.386 33.5129 185.487 33.4382 185.626C33.3636 185.765 33.3263 185.919 33.3263 186.09C33.3263 186.303 33.3956 186.463 33.5343 186.57C33.6729 186.677 33.9022 186.73 34.2222 186.73H36.3503C37.2996 186.73 37.9716 186.933 38.3663 187.338C38.7716 187.743 38.9743 188.325 38.9743 189.082ZM37.1663 189.306C37.1663 189.018 37.0703 188.799 36.8783 188.65C36.6863 188.501 36.3663 188.426 35.9183 188.426H33.3423C33.1076 188.629 32.9902 188.927 32.9902 189.322C32.9902 189.663 33.1023 189.925 33.3263 190.106C33.5609 190.287 33.9662 190.378 34.5422 190.378H35.4862C36.0943 190.378 36.5262 190.287 36.7822 190.106C37.0382 189.935 37.1663 189.669 37.1663 189.306ZM34.9902 184.122C35.8756 184.122 36.3183 183.685 36.3183 182.81V182.442C36.3183 181.567 35.8756 181.13 34.9902 181.13C34.1049 181.13 33.6623 181.567 33.6623 182.442V182.81C33.6623 183.685 34.1049 184.122 34.9902 184.122Z" fill="#0A0A0A"/>
<path d="M40.0173 176.506H41.9533V181.386H42.1772C42.5079 180.33 43.1746 179.802 44.1772 179.802C44.9239 179.802 45.4999 180.058 45.9053 180.57C46.3106 181.071 46.5133 181.791 46.5133 182.73V188.346H44.5773V183.066C44.5773 181.978 44.1719 181.434 43.3613 181.434C42.9666 181.434 42.6306 181.551 42.3532 181.786C42.0866 182.01 41.9533 182.33 41.9533 182.746V188.346H40.0173V176.506Z" fill="#0A0A0A"/>
<path d="M50.8369 188.346C50.1649 188.346 49.6795 188.197 49.3809 187.898C49.0822 187.599 48.9329 187.125 48.9329 186.474V181.546H47.8289V179.994H48.4049C48.6822 179.994 48.8689 179.93 48.9649 179.802C49.0715 179.674 49.1249 179.471 49.1249 179.194V177.722H50.8689V179.994H52.3729V181.546H50.8689V186.794H52.2449V188.346H50.8369Z" fill="#0A0A0A"/>
<path d="M53.0766 179.994H54.9806L55.7966 183.898L56.1966 186.586H56.3886L56.8686 183.898L57.7966 179.994H59.7486L60.6926 183.898L61.1726 186.586H61.3646L61.7646 183.898L62.6126 179.994H64.4046L62.3726 188.346H60.1966L59.2206 184.282L58.8526 181.802H58.6446L58.2606 184.282L57.2846 188.346H55.1086L53.0766 179.994Z" fill="#0A0A0A"/>
<path d="M68.7943 188.538C68.2503 188.538 67.7489 188.453 67.2902 188.282C66.8422 188.101 66.4583 187.834 66.1383 187.482C65.8183 187.119 65.5676 186.666 65.3862 186.122C65.2156 185.567 65.1302 184.917 65.1302 184.17C65.1302 182.666 65.4289 181.562 66.0262 180.858C66.6342 180.154 67.4983 179.802 68.6183 179.802C69.7383 179.802 70.5969 180.154 71.1943 180.858C71.8023 181.562 72.1063 182.666 72.1063 184.17V184.634H67.1623V185.178C67.1623 185.733 67.3169 186.17 67.6263 186.49C67.9356 186.81 68.3623 186.97 68.9062 186.97C69.3649 186.97 69.7489 186.874 70.0583 186.682C70.3783 186.479 70.6503 186.191 70.8743 185.818L71.9303 186.922C71.6209 187.413 71.2049 187.807 70.6823 188.106C70.1596 188.394 69.5303 188.538 68.7943 188.538ZM68.6183 181.29C67.6476 181.29 67.1623 181.866 67.1623 183.018V183.434H70.0742V183.018C70.0742 181.866 69.5889 181.29 68.6183 181.29Z" fill="#0A0A0A"/>
<path d="M74.6804 178.682C74.275 178.682 73.9817 178.597 73.8004 178.426C73.619 178.245 73.5284 178.005 73.5284 177.706V177.386C73.5284 177.087 73.619 176.853 73.8004 176.682C73.9817 176.501 74.275 176.41 74.6804 176.41C75.0857 176.41 75.379 176.501 75.5604 176.682C75.7417 176.853 75.8324 177.087 75.8324 177.386V177.706C75.8324 178.005 75.7417 178.245 75.5604 178.426C75.379 178.597 75.0857 178.682 74.6804 178.682ZM73.7204 179.994H75.6564V188.346H73.7204V179.994Z" fill="#0A0A0A"/>
<path d="M84.5836 189.082C84.5836 189.519 84.5143 189.903 84.3756 190.234C84.2476 190.565 84.029 190.842 83.7196 191.066C83.4103 191.29 82.9996 191.455 82.4876 191.562C81.9756 191.679 81.3463 191.738 80.5996 191.738C79.9383 191.738 79.3836 191.69 78.9356 191.594C78.4876 191.509 78.125 191.381 77.8476 191.21C77.5703 191.039 77.373 190.831 77.2556 190.586C77.1383 190.341 77.0796 190.063 77.0796 189.754C77.0796 189.327 77.197 188.991 77.4316 188.746C77.6663 188.501 78.0023 188.346 78.4396 188.282V187.978C78.0983 187.893 77.8423 187.733 77.6716 187.498C77.5116 187.263 77.4316 186.975 77.4316 186.634C77.4316 186.293 77.549 186.01 77.7836 185.786C78.0183 185.551 78.3596 185.391 78.8076 185.306V185.098C77.901 184.65 77.4476 183.829 77.4476 182.634C77.4476 181.727 77.7036 181.029 78.2156 180.538C78.7276 180.047 79.5223 179.802 80.5996 179.802C81.0796 179.802 81.517 179.877 81.9116 180.026V179.722C81.9116 178.965 82.2743 178.586 82.9996 178.586H84.1676V180.09H82.5516V180.41C82.9463 180.602 83.245 180.89 83.4476 181.274C83.6503 181.647 83.7516 182.101 83.7516 182.634C83.7516 183.541 83.4956 184.239 82.9836 184.73C82.4823 185.21 81.6876 185.45 80.5996 185.45C80.1623 185.45 79.757 185.407 79.3836 185.322C79.2343 185.386 79.1223 185.487 79.0476 185.626C78.973 185.765 78.9356 185.919 78.9356 186.09C78.9356 186.303 79.005 186.463 79.1436 186.57C79.2823 186.677 79.5116 186.73 79.8316 186.73H81.9596C82.909 186.73 83.581 186.933 83.9756 187.338C84.381 187.743 84.5836 188.325 84.5836 189.082ZM82.7756 189.306C82.7756 189.018 82.6796 188.799 82.4876 188.65C82.2956 188.501 81.9756 188.426 81.5276 188.426H78.9516C78.717 188.629 78.5996 188.927 78.5996 189.322C78.5996 189.663 78.7116 189.925 78.9356 190.106C79.1703 190.287 79.5756 190.378 80.1516 190.378H81.0956C81.7036 190.378 82.1356 190.287 82.3916 190.106C82.6476 189.935 82.7756 189.669 82.7756 189.306ZM80.5996 184.122C81.485 184.122 81.9276 183.685 81.9276 182.81V182.442C81.9276 181.567 81.485 181.13 80.5996 181.13C79.7143 181.13 79.2716 181.567 79.2716 182.442V182.81C79.2716 183.685 79.7143 184.122 80.5996 184.122Z" fill="#0A0A0A"/>
<path d="M85.6266 176.506H87.5626V181.386H87.7866C88.1173 180.33 88.784 179.802 89.7866 179.802C90.5333 179.802 91.1093 180.058 91.5146 180.57C91.92 181.071 92.1226 181.791 92.1226 182.73V188.346H90.1866V183.066C90.1866 181.978 89.7813 181.434 88.9706 181.434C88.576 181.434 88.24 181.551 87.9626 181.786C87.696 182.01 87.5626 182.33 87.5626 182.746V188.346H85.6266V176.506Z" fill="#0A0A0A"/>
<path d="M96.4463 188.346C95.7743 188.346 95.2889 188.197 94.9902 187.898C94.6916 187.599 94.5423 187.125 94.5423 186.474V181.546H93.4382V179.994H94.0143C94.2916 179.994 94.4782 179.93 94.5742 179.802C94.6809 179.674 94.7343 179.471 94.7343 179.194V177.722H96.4782V179.994H97.9823V181.546H96.4782V186.794H97.8542V188.346H96.4463Z" fill="#0A0A0A"/>
<path d="M100.716 186.042C101.121 186.042 101.42 186.138 101.612 186.33C101.814 186.511 101.916 186.767 101.916 187.098V187.466C101.916 188.042 101.782 188.618 101.516 189.194C101.249 189.77 100.876 190.245 100.396 190.618H99.0677C99.4411 190.245 99.7291 189.893 99.9317 189.562C100.145 189.231 100.305 188.879 100.412 188.506C99.8144 188.41 99.5157 188.063 99.5157 187.466V187.098C99.5157 186.767 99.6117 186.511 99.8037 186.33C100.006 186.138 100.31 186.042 100.716 186.042Z" fill="#0A0A0A"/>
<path d="M110.353 188.538C109.244 188.538 108.38 188.186 107.761 187.482C107.153 186.778 106.849 185.674 106.849 184.17C106.849 182.666 107.153 181.562 107.761 180.858C108.38 180.154 109.244 179.802 110.353 179.802C111.462 179.802 112.321 180.154 112.929 180.858C113.548 181.562 113.857 182.666 113.857 184.17C113.857 185.674 113.548 186.778 112.929 187.482C112.321 188.186 111.462 188.538 110.353 188.538ZM110.353 186.97C111.334 186.97 111.825 186.394 111.825 185.242V183.098C111.825 181.946 111.334 181.37 110.353 181.37C109.372 181.37 108.881 181.946 108.881 183.098V185.242C108.881 186.394 109.372 186.97 110.353 186.97Z" fill="#0A0A0A"/>
<path d="M115.455 188.346V179.994H117.391V181.386H117.615C117.945 180.33 118.612 179.802 119.615 179.802C120.361 179.802 120.937 180.058 121.343 180.57C121.748 181.071 121.951 181.791 121.951 182.73V188.346H120.015V183.066C120.015 181.978 119.609 181.434 118.799 181.434C118.404 181.434 118.068 181.551 117.791 181.786C117.524 182.01 117.391 182.33 117.391 182.746V188.346H115.455Z" fill="#0A0A0A"/>
<path d="M127.122 188.538C126.578 188.538 126.077 188.453 125.618 188.282C125.17 188.101 124.786 187.834 124.466 187.482C124.146 187.119 123.896 186.666 123.714 186.122C123.544 185.567 123.458 184.917 123.458 184.17C123.458 182.666 123.757 181.562 124.354 180.858C124.962 180.154 125.826 179.802 126.946 179.802C128.066 179.802 128.925 180.154 129.522 180.858C130.13 181.562 130.434 182.666 130.434 184.17V184.634H125.49V185.178C125.49 185.733 125.645 186.17 125.954 186.49C126.264 186.81 126.69 186.97 127.234 186.97C127.693 186.97 128.077 186.874 128.386 186.682C128.706 186.479 128.978 186.191 129.202 185.818L130.258 186.922C129.949 187.413 129.533 187.807 129.01 188.106C128.488 188.394 127.858 188.538 127.122 188.538ZM126.946 181.29C125.976 181.29 125.49 181.866 125.49 183.018V183.434H128.402V183.018C128.402 181.866 127.917 181.29 126.946 181.29Z" fill="#0A0A0A"/>
<path d="M137.327 188.346C136.655 188.346 136.17 188.197 135.871 187.898C135.583 187.599 135.439 187.13 135.439 186.49V176.506H137.375V186.794H138.335V188.346H137.327Z" fill="#0A0A0A"/>
<path d="M140.68 178.682C140.275 178.682 139.982 178.597 139.8 178.426C139.619 178.245 139.528 178.005 139.528 177.706V177.386C139.528 177.087 139.619 176.853 139.8 176.682C139.982 176.501 140.275 176.41 140.68 176.41C141.086 176.41 141.379 176.501 141.56 176.682C141.742 176.853 141.832 177.087 141.832 177.386V177.706C141.832 178.005 141.742 178.245 141.56 178.426C141.379 178.597 141.086 178.682 140.68 178.682ZM139.72 179.994H141.656V188.346H139.72V179.994Z" fill="#0A0A0A"/>
<path d="M143.752 188.346V179.994H145.688V181.386H145.912C146.242 180.33 146.909 179.802 147.912 179.802C148.658 179.802 149.234 180.058 149.64 180.57C150.045 181.071 150.248 181.791 150.248 182.73V188.346H148.312V183.066C148.312 181.978 147.906 181.434 147.096 181.434C146.701 181.434 146.365 181.551 146.088 181.786C145.821 182.01 145.688 182.33 145.688 182.746V188.346H143.752Z" fill="#0A0A0A"/>
<path d="M155.419 188.538C154.875 188.538 154.374 188.453 153.915 188.282C153.467 188.101 153.083 187.834 152.763 187.482C152.443 187.119 152.193 186.666 152.011 186.122C151.841 185.567 151.755 184.917 151.755 184.17C151.755 182.666 152.054 181.562 152.651 180.858C153.259 180.154 154.123 179.802 155.243 179.802C156.363 179.802 157.222 180.154 157.819 180.858C158.427 181.562 158.731 182.666 158.731 184.17V184.634H153.787V185.178C153.787 185.733 153.942 186.17 154.251 186.49C154.561 186.81 154.987 186.97 155.531 186.97C155.99 186.97 156.374 186.874 156.683 186.682C157.003 186.479 157.275 186.191 157.499 185.818L158.555 186.922C158.246 187.413 157.83 187.807 157.307 188.106C156.785 188.394 156.155 188.538 155.419 188.538ZM155.243 181.29C154.273 181.29 153.787 181.866 153.787 183.018V183.434H156.699V183.018C156.699 181.866 156.214 181.29 155.243 181.29Z" fill="#0A0A0A"/>
<path d="M166.264 188.538C165.571 188.538 164.963 188.415 164.44 188.17C163.917 187.914 163.459 187.535 163.064 187.034L164.248 185.882C164.515 186.255 164.813 186.538 165.144 186.73C165.475 186.922 165.859 187.018 166.296 187.018C167.107 187.018 167.512 186.677 167.512 185.994C167.512 185.727 167.443 185.519 167.304 185.37C167.176 185.21 166.952 185.103 166.632 185.05L165.848 184.906C164.973 184.746 164.339 184.474 163.944 184.09C163.549 183.706 163.352 183.146 163.352 182.41C163.352 181.535 163.608 180.885 164.12 180.458C164.632 180.021 165.357 179.802 166.296 179.802C166.947 179.802 167.507 179.909 167.976 180.122C168.456 180.335 168.872 180.65 169.224 181.066L168.088 182.202C167.875 181.935 167.613 181.722 167.304 181.562C167.005 181.402 166.669 181.322 166.296 181.322C165.549 181.322 165.176 181.658 165.176 182.33C165.176 182.607 165.251 182.821 165.4 182.97C165.549 183.109 165.784 183.205 166.104 183.258L166.904 183.402C167.779 183.562 168.403 183.834 168.776 184.218C169.16 184.591 169.352 185.119 169.352 185.802C169.352 186.666 169.085 187.338 168.552 187.818C168.019 188.298 167.256 188.538 166.264 188.538Z" fill="#0A0A0A"/>
<path d="M174.076 188.538C173.532 188.538 173.03 188.453 172.571 188.282C172.123 188.101 171.739 187.834 171.419 187.482C171.099 187.119 170.849 186.666 170.667 186.122C170.497 185.567 170.411 184.917 170.411 184.17C170.411 182.666 170.71 181.562 171.307 180.858C171.915 180.154 172.779 179.802 173.899 179.802C175.019 179.802 175.878 180.154 176.475 180.858C177.083 181.562 177.387 182.666 177.387 184.17V184.634H172.443V185.178C172.443 185.733 172.598 186.17 172.907 186.49C173.217 186.81 173.644 186.97 174.188 186.97C174.646 186.97 175.03 186.874 175.339 186.682C175.659 186.479 175.931 186.191 176.155 185.818L177.211 186.922C176.902 187.413 176.486 187.807 175.963 188.106C175.441 188.394 174.812 188.538 174.076 188.538ZM173.899 181.29C172.929 181.29 172.443 181.866 172.443 183.018V183.434H175.355V183.018C175.355 181.866 174.87 181.29 173.899 181.29Z" fill="#0A0A0A"/>
<path d="M181.306 188.346C180.634 188.346 180.148 188.197 179.85 187.898C179.551 187.599 179.402 187.125 179.402 186.474V181.546H178.298V179.994H178.874C179.151 179.994 179.338 179.93 179.434 179.802C179.54 179.674 179.594 179.471 179.594 179.194V177.722H181.338V179.994H182.842V181.546H181.338V186.794H182.714V188.346H181.306Z" fill="#0A0A0A"/>
<path d="M188.825 186.938H188.601C188.281 188.005 187.604 188.538 186.569 188.538C185.823 188.538 185.247 188.287 184.841 187.786C184.447 187.274 184.249 186.543 184.249 185.594V179.994H186.185V185.274C186.185 186.373 186.591 186.922 187.401 186.922C187.796 186.922 188.132 186.805 188.409 186.57C188.687 186.335 188.825 186.01 188.825 185.594V179.994H190.761V188.346H188.825V186.938Z" fill="#0A0A0A"/>
<path d="M192.877 179.994H194.813V181.37H195.037C195.154 180.901 195.389 180.522 195.741 180.234C196.103 179.946 196.525 179.802 197.005 179.802C197.986 179.802 198.711 180.175 199.181 180.922C199.65 181.658 199.885 182.741 199.885 184.17C199.885 185.599 199.65 186.687 199.181 187.434C198.711 188.17 197.986 188.538 197.005 188.538C196.525 188.538 196.103 188.394 195.741 188.106C195.389 187.818 195.154 187.439 195.037 186.97H194.813V191.546H192.877V179.994ZM196.269 186.938C196.77 186.938 197.159 186.783 197.437 186.474C197.714 186.165 197.853 185.727 197.853 185.162V183.178C197.853 182.613 197.714 182.175 197.437 181.866C197.159 181.557 196.77 181.402 196.269 181.402C195.831 181.402 195.479 181.514 195.213 181.738C194.946 181.951 194.813 182.255 194.813 182.65V185.69C194.813 186.085 194.946 186.394 195.213 186.618C195.479 186.831 195.831 186.938 196.269 186.938Z" fill="#0A0A0A"/>
<path d="M202.372 186.042C202.777 186.042 203.076 186.138 203.268 186.33C203.471 186.511 203.572 186.767 203.572 187.098V187.466C203.572 188.042 203.439 188.618 203.172 189.194C202.905 189.77 202.532 190.245 202.052 190.618H200.724C201.097 190.245 201.385 189.893 201.588 189.562C201.801 189.231 201.961 188.879 202.068 188.506C201.471 188.41 201.172 188.063 201.172 187.466V187.098C201.172 186.767 201.268 186.511 201.46 186.33C201.663 186.138 201.967 186.042 202.372 186.042Z" fill="#0A0A0A"/>
<path d="M209.977 178.682C209.572 178.682 209.279 178.597 209.097 178.426C208.916 178.245 208.825 178.005 208.825 177.706V177.386C208.825 177.087 208.916 176.853 209.097 176.682C209.279 176.501 209.572 176.41 209.977 176.41C210.383 176.41 210.676 176.501 210.857 176.682C211.039 176.853 211.129 177.087 211.129 177.386V177.706C211.129 178.005 211.039 178.245 210.857 178.426C210.676 178.597 210.383 178.682 209.977 178.682ZM209.017 179.994H210.953V188.346H209.017V179.994Z" fill="#0A0A0A"/>
<path d="M217.128 188.538C216.456 188.538 215.848 188.431 215.304 188.218C214.771 187.994 214.312 187.653 213.928 187.194C213.555 186.725 213.262 186.127 213.048 185.402C212.846 184.666 212.744 183.786 212.744 182.762C212.744 181.738 212.846 180.863 213.048 180.138C213.262 179.402 213.555 178.805 213.928 178.346C214.312 177.877 214.771 177.535 215.304 177.322C215.848 177.098 216.456 176.986 217.128 176.986C217.8 176.986 218.403 177.098 218.936 177.322C219.48 177.535 219.939 177.877 220.312 178.346C220.697 178.805 220.99 179.402 221.192 180.138C221.406 180.863 221.512 181.738 221.512 182.762C221.512 183.786 221.406 184.666 221.192 185.402C220.99 186.127 220.697 186.725 220.312 187.194C219.939 187.653 219.48 187.994 218.936 188.218C218.403 188.431 217.8 188.538 217.128 188.538ZM217.128 186.778C217.854 186.778 218.414 186.554 218.808 186.106C219.203 185.647 219.4 184.997 219.4 184.154V181.37C219.4 180.527 219.203 179.882 218.808 179.434C218.414 178.975 217.854 178.746 217.128 178.746C216.403 178.746 215.843 178.975 215.448 179.434C215.054 179.882 214.856 180.527 214.856 181.37V184.154C214.856 184.997 215.054 185.647 215.448 186.106C215.843 186.554 216.403 186.778 217.128 186.778Z" fill="#0A0A0A"/>
<path d="M226.593 188.538C225.761 188.538 225.025 188.389 224.385 188.09C223.756 187.781 223.212 187.327 222.753 186.73L224.065 185.466C224.385 185.903 224.759 186.239 225.185 186.474C225.612 186.698 226.092 186.81 226.625 186.81C227.82 186.81 228.417 186.266 228.417 185.178C228.417 184.73 228.311 184.389 228.097 184.154C227.884 183.919 227.532 183.749 227.041 183.642L226.065 183.45C225.052 183.237 224.305 182.874 223.825 182.362C223.345 181.85 223.105 181.135 223.105 180.218C223.105 179.151 223.42 178.346 224.049 177.802C224.689 177.258 225.596 176.986 226.769 176.986C227.569 176.986 228.252 177.119 228.817 177.386C229.393 177.642 229.884 178.047 230.289 178.602L228.977 179.834C228.7 179.461 228.385 179.183 228.033 179.002C227.681 178.81 227.249 178.714 226.737 178.714C226.172 178.714 225.756 178.826 225.489 179.05C225.223 179.274 225.089 179.637 225.089 180.138C225.089 180.554 225.191 180.874 225.393 181.098C225.607 181.322 225.948 181.487 226.417 181.594L227.393 181.802C227.937 181.919 228.396 182.063 228.769 182.234C229.153 182.405 229.463 182.618 229.697 182.874C229.943 183.13 230.119 183.434 230.225 183.786C230.343 184.127 230.401 184.533 230.401 185.002C230.401 186.154 230.071 187.034 229.409 187.642C228.759 188.239 227.82 188.538 226.593 188.538Z" fill="#0A0A0A"/>
<path d="M234.494 190.762L238.686 176.506H240.302L236.11 190.762H234.494Z" fill="#0A0A0A"/>
<path d="M245.283 188.346V179.994H247.219V181.386H247.443C247.774 180.33 248.43 179.802 249.411 179.802C250.456 179.802 251.134 180.351 251.443 181.45H251.635C251.816 180.885 252.094 180.469 252.467 180.202C252.851 179.935 253.315 179.802 253.859 179.802C254.563 179.802 255.112 180.058 255.507 180.57C255.902 181.071 256.099 181.791 256.099 182.73V188.346H254.163V183.066C254.163 181.978 253.774 181.434 252.995 181.434C252.622 181.434 252.302 181.551 252.035 181.786C251.779 182.01 251.651 182.33 251.651 182.746V188.346H249.715V183.066C249.715 182.49 249.619 182.074 249.427 181.818C249.235 181.562 248.947 181.434 248.563 181.434C248.19 181.434 247.87 181.551 247.603 181.786C247.347 182.01 247.219 182.33 247.219 182.746V188.346H245.283Z" fill="#0A0A0A"/>
<path d="M263.551 188.346C262.687 188.346 262.234 187.871 262.191 186.922H261.999C261.892 187.434 261.652 187.834 261.279 188.122C260.906 188.399 260.442 188.538 259.887 188.538C259.119 188.538 258.543 188.325 258.159 187.898C257.775 187.471 257.583 186.874 257.583 186.106C257.583 185.231 257.855 184.581 258.399 184.154C258.943 183.727 259.727 183.514 260.751 183.514H262.047V182.794C262.047 182.303 261.94 181.941 261.727 181.706C261.524 181.471 261.183 181.354 260.703 181.354C260.308 181.354 259.978 181.45 259.711 181.642C259.444 181.823 259.21 182.085 259.007 182.426L257.871 181.402C258.18 180.922 258.57 180.538 259.039 180.25C259.519 179.951 260.127 179.802 260.863 179.802C262.943 179.802 263.983 180.783 263.983 182.746V186.794H264.719V188.346H263.551ZM260.623 187.114C261.018 187.114 261.354 187.002 261.631 186.778C261.908 186.543 262.047 186.223 262.047 185.818V184.714H260.879C259.983 184.714 259.535 185.061 259.535 185.754V186.106C259.535 186.458 259.631 186.714 259.823 186.874C260.015 187.034 260.282 187.114 260.623 187.114Z" fill="#0A0A0A"/>
<path d="M269.18 188.538C268.05 188.538 267.186 188.186 266.588 187.482C266.002 186.778 265.708 185.674 265.708 184.17C265.708 182.666 266.002 181.562 266.588 180.858C267.186 180.154 268.05 179.802 269.18 179.802C270.002 179.802 270.652 179.989 271.132 180.362C271.623 180.735 271.975 181.247 272.188 181.898L270.604 182.602C270.519 182.197 270.364 181.893 270.14 181.69C269.927 181.477 269.607 181.37 269.18 181.37C268.22 181.37 267.74 181.946 267.74 183.098V185.242C267.74 186.394 268.22 186.97 269.18 186.97C269.628 186.97 269.97 186.863 270.204 186.65C270.439 186.437 270.615 186.106 270.732 185.658L272.236 186.378C271.746 187.818 270.727 188.538 269.18 188.538Z" fill="#0A0A0A"/>
<path d="M277.722 188.538C277.05 188.538 276.442 188.431 275.898 188.218C275.365 187.994 274.906 187.653 274.522 187.194C274.149 186.725 273.856 186.127 273.642 185.402C273.44 184.666 273.338 183.786 273.338 182.762C273.338 181.738 273.44 180.863 273.642 180.138C273.856 179.402 274.149 178.805 274.522 178.346C274.906 177.877 275.365 177.535 275.898 177.322C276.442 177.098 277.05 176.986 277.722 176.986C278.394 176.986 278.997 177.098 279.53 177.322C280.074 177.535 280.533 177.877 280.906 178.346C281.29 178.805 281.584 179.402 281.786 180.138C282 180.863 282.106 181.738 282.106 182.762C282.106 183.786 282 184.666 281.786 185.402C281.584 186.127 281.29 186.725 280.906 187.194C280.533 187.653 280.074 187.994 279.53 188.218C278.997 188.431 278.394 188.538 277.722 188.538ZM277.722 186.778C278.448 186.778 279.008 186.554 279.402 186.106C279.797 185.647 279.994 184.997 279.994 184.154V181.37C279.994 180.527 279.797 179.882 279.402 179.434C279.008 178.975 278.448 178.746 277.722 178.746C276.997 178.746 276.437 178.975 276.042 179.434C275.648 179.882 275.45 180.527 275.45 181.37V184.154C275.45 184.997 275.648 185.647 276.042 186.106C276.437 186.554 276.997 186.778 277.722 186.778Z" fill="#0A0A0A"/>
<path d="M287.187 188.538C286.355 188.538 285.619 188.389 284.979 188.09C284.35 187.781 283.806 187.327 283.347 186.73L284.659 185.466C284.979 185.903 285.352 186.239 285.779 186.474C286.206 186.698 286.686 186.81 287.219 186.81C288.414 186.81 289.011 186.266 289.011 185.178C289.011 184.73 288.904 184.389 288.691 184.154C288.478 183.919 288.126 183.749 287.635 183.642L286.659 183.45C285.646 183.237 284.899 182.874 284.419 182.362C283.939 181.85 283.699 181.135 283.699 180.218C283.699 179.151 284.014 178.346 284.643 177.802C285.283 177.258 286.19 176.986 287.363 176.986C288.163 176.986 288.846 177.119 289.411 177.386C289.987 177.642 290.478 178.047 290.883 178.602L289.571 179.834C289.294 179.461 288.979 179.183 288.627 179.002C288.275 178.81 287.843 178.714 287.331 178.714C286.766 178.714 286.35 178.826 286.083 179.05C285.816 179.274 285.683 179.637 285.683 180.138C285.683 180.554 285.784 180.874 285.987 181.098C286.2 181.322 286.542 181.487 287.011 181.594L287.987 181.802C288.531 181.919 288.99 182.063 289.363 182.234C289.747 182.405 290.056 182.618 290.291 182.874C290.536 183.13 290.712 183.434 290.819 183.786C290.936 184.127 290.995 184.533 290.995 185.002C290.995 186.154 290.664 187.034 290.003 187.642C289.352 188.239 288.414 188.538 287.187 188.538Z" fill="#0A0A0A"/>
<path d="M296.064 188.346V179.994H298V181.386H298.224C298.555 180.33 299.221 179.802 300.224 179.802C300.971 179.802 301.547 180.058 301.952 180.57C302.357 181.071 302.56 181.791 302.56 182.73V188.346H300.624V183.066C300.624 181.978 300.219 181.434 299.408 181.434C299.013 181.434 298.677 181.551 298.4 181.786C298.133 182.01 298 182.33 298 182.746V188.346H296.064Z" fill="#0A0A0A"/>
<path d="M307.732 188.538C307.188 188.538 306.686 188.453 306.228 188.282C305.78 188.101 305.396 187.834 305.076 187.482C304.756 187.119 304.505 186.666 304.324 186.122C304.153 185.567 304.068 184.917 304.068 184.17C304.068 182.666 304.366 181.562 304.964 180.858C305.572 180.154 306.436 179.802 307.556 179.802C308.676 179.802 309.534 180.154 310.132 180.858C310.74 181.562 311.044 182.666 311.044 184.17V184.634H306.1V185.178C306.1 185.733 306.254 186.17 306.564 186.49C306.873 186.81 307.3 186.97 307.844 186.97C308.302 186.97 308.686 186.874 308.996 186.682C309.316 186.479 309.588 186.191 309.812 185.818L310.868 186.922C310.558 187.413 310.142 187.807 309.62 188.106C309.097 188.394 308.468 188.538 307.732 188.538ZM307.556 181.29C306.585 181.29 306.1 181.866 306.1 183.018V183.434H309.012V183.018C309.012 181.866 308.526 181.29 307.556 181.29Z" fill="#0A0A0A"/>
<path d="M314.962 188.346C314.29 188.346 313.805 188.197 313.506 187.898C313.207 187.599 313.058 187.125 313.058 186.474V181.546H311.954V179.994H312.53C312.807 179.994 312.994 179.93 313.09 179.802C313.197 179.674 313.25 179.471 313.25 179.194V177.722H314.994V179.994H316.498V181.546H314.994V186.794H316.37V188.346H314.962Z" fill="#0A0A0A"/>
<path d="M317.202 179.994H319.106L319.922 183.898L320.322 186.586H320.514L320.994 183.898L321.922 179.994H323.874L324.818 183.898L325.298 186.586H325.49L325.89 183.898L326.738 179.994H328.53L326.498 188.346H324.322L323.346 184.282L322.978 181.802H322.77L322.386 184.282L321.41 188.346H319.234L317.202 179.994Z" fill="#0A0A0A"/>
<path d="M332.759 188.538C331.65 188.538 330.786 188.186 330.167 187.482C329.559 186.778 329.255 185.674 329.255 184.17C329.255 182.666 329.559 181.562 330.167 180.858C330.786 180.154 331.65 179.802 332.759 179.802C333.869 179.802 334.727 180.154 335.335 180.858C335.954 181.562 336.263 182.666 336.263 184.17C336.263 185.674 335.954 186.778 335.335 187.482C334.727 188.186 333.869 188.538 332.759 188.538ZM332.759 186.97C333.741 186.97 334.231 186.394 334.231 185.242V183.098C334.231 181.946 333.741 181.37 332.759 181.37C331.778 181.37 331.287 181.946 331.287 183.098V185.242C331.287 186.394 331.778 186.97 332.759 186.97Z" fill="#0A0A0A"/>
<path d="M337.861 188.346V179.994H339.797V181.706H340.021C340.117 181.151 340.314 180.73 340.613 180.442C340.922 180.143 341.322 179.994 341.813 179.994H342.229V181.978H341.589C340.981 181.978 340.528 182.074 340.229 182.266C339.941 182.458 339.797 182.794 339.797 183.274V188.346H337.861Z" fill="#0A0A0A"/>
<path d="M343.58 176.506H345.516V182.026L345.388 183.754H345.612L346.588 182.218L348.252 179.994H350.444L347.836 183.274L350.588 188.346H348.412L346.492 184.522L345.516 185.738V188.346H343.58V176.506Z" fill="#0A0A0A"/>
<path d="M359.798 186.97H359.574C359.457 187.439 359.217 187.818 358.854 188.106C358.502 188.394 358.086 188.538 357.606 188.538C356.625 188.538 355.9 188.17 355.43 187.434C354.961 186.687 354.726 185.599 354.726 184.17C354.726 182.741 354.961 181.658 355.43 180.922C355.9 180.175 356.625 179.802 357.606 179.802C358.086 179.802 358.502 179.946 358.854 180.234C359.217 180.522 359.457 180.901 359.574 181.37H359.798V176.506H361.734V188.346H359.798V186.97ZM358.342 186.938C358.78 186.938 359.132 186.831 359.398 186.618C359.665 186.394 359.798 186.085 359.798 185.69V182.65C359.798 182.255 359.665 181.951 359.398 181.738C359.132 181.514 358.78 181.402 358.342 181.402C357.841 181.402 357.452 181.557 357.174 181.866C356.897 182.175 356.758 182.613 356.758 183.178V185.162C356.758 185.727 356.897 186.165 357.174 186.474C357.452 186.783 357.841 186.938 358.342 186.938Z" fill="#0A0A0A"/>
<path d="M366.997 188.538C366.453 188.538 365.952 188.453 365.493 188.282C365.045 188.101 364.661 187.834 364.341 187.482C364.021 187.119 363.771 186.666 363.589 186.122C363.419 185.567 363.333 184.917 363.333 184.17C363.333 182.666 363.632 181.562 364.229 180.858C364.837 180.154 365.701 179.802 366.821 179.802C367.941 179.802 368.8 180.154 369.397 180.858C370.005 181.562 370.309 182.666 370.309 184.17V184.634H365.365V185.178C365.365 185.733 365.52 186.17 365.829 186.49C366.139 186.81 366.565 186.97 367.109 186.97C367.568 186.97 367.952 186.874 368.261 186.682C368.581 186.479 368.853 186.191 369.077 185.818L370.133 186.922C369.824 187.413 369.408 187.807 368.885 188.106C368.363 188.394 367.733 188.538 366.997 188.538ZM366.821 181.29C365.851 181.29 365.365 181.866 365.365 183.018V183.434H368.277V183.018C368.277 181.866 367.792 181.29 366.821 181.29Z" fill="#0A0A0A"/>
<path d="M371.923 176.506H373.859V181.37H374.083C374.201 180.901 374.436 180.522 374.788 180.234C375.15 179.946 375.571 179.802 376.051 179.802C377.033 179.802 377.758 180.175 378.227 180.922C378.697 181.658 378.931 182.741 378.931 184.17C378.931 185.599 378.697 186.687 378.227 187.434C377.758 188.17 377.033 188.538 376.051 188.538C375.571 188.538 375.15 188.394 374.788 188.106C374.436 187.818 374.201 187.439 374.083 186.97H373.859V188.346H371.923V176.506ZM375.315 186.938C375.817 186.938 376.206 186.783 376.483 186.474C376.761 186.165 376.9 185.727 376.9 185.162V183.178C376.9 182.613 376.761 182.175 376.483 181.866C376.206 181.557 375.817 181.402 375.315 181.402C374.878 181.402 374.526 181.514 374.259 181.738C373.993 181.951 373.859 182.255 373.859 182.65V185.69C373.859 186.085 373.993 186.394 374.259 186.618C374.526 186.831 374.878 186.938 375.315 186.938Z" fill="#0A0A0A"/>
<path d="M385.107 186.938H384.883C384.563 188.005 383.885 188.538 382.851 188.538C382.104 188.538 381.528 188.287 381.123 187.786C380.728 187.274 380.531 186.543 380.531 185.594V179.994H382.467V185.274C382.467 186.373 382.872 186.922 383.683 186.922C384.077 186.922 384.413 186.805 384.691 186.57C384.968 186.335 385.107 186.01 385.107 185.594V179.994H387.043V188.346H385.107V186.938Z" fill="#0A0A0A"/>
<path d="M395.99 189.082C395.99 189.519 395.921 189.903 395.782 190.234C395.654 190.565 395.435 190.842 395.126 191.066C394.817 191.29 394.406 191.455 393.894 191.562C393.382 191.679 392.753 191.738 392.006 191.738C391.345 191.738 390.79 191.69 390.342 191.594C389.894 191.509 389.531 191.381 389.254 191.21C388.977 191.039 388.779 190.831 388.662 190.586C388.545 190.341 388.486 190.063 388.486 189.754C388.486 189.327 388.603 188.991 388.838 188.746C389.073 188.501 389.409 188.346 389.846 188.282V187.978C389.505 187.893 389.249 187.733 389.078 187.498C388.918 187.263 388.838 186.975 388.838 186.634C388.838 186.293 388.955 186.01 389.19 185.786C389.425 185.551 389.766 185.391 390.214 185.306V185.098C389.307 184.65 388.854 183.829 388.854 182.634C388.854 181.727 389.11 181.029 389.622 180.538C390.134 180.047 390.929 179.802 392.006 179.802C392.486 179.802 392.923 179.877 393.318 180.026V179.722C393.318 178.965 393.681 178.586 394.406 178.586H395.574V180.09H393.958V180.41C394.353 180.602 394.651 180.89 394.854 181.274C395.057 181.647 395.158 182.101 395.158 182.634C395.158 183.541 394.902 184.239 394.39 184.73C393.889 185.21 393.094 185.45 392.006 185.45C391.569 185.45 391.163 185.407 390.79 185.322C390.641 185.386 390.529 185.487 390.454 185.626C390.379 185.765 390.342 185.919 390.342 186.09C390.342 186.303 390.411 186.463 390.55 186.57C390.689 186.677 390.918 186.73 391.238 186.73H393.366C394.315 186.73 394.987 186.933 395.382 187.338C395.787 187.743 395.99 188.325 395.99 189.082ZM394.182 189.306C394.182 189.018 394.086 188.799 393.894 188.65C393.702 188.501 393.382 188.426 392.934 188.426H390.358C390.123 188.629 390.006 188.927 390.006 189.322C390.006 189.663 390.118 189.925 390.342 190.106C390.577 190.287 390.982 190.378 391.558 190.378H392.502C393.11 190.378 393.542 190.287 393.798 190.106C394.054 189.935 394.182 189.669 394.182 189.306ZM392.006 184.122C392.891 184.122 393.334 183.685 393.334 182.81V182.442C393.334 181.567 392.891 181.13 392.006 181.13C391.121 181.13 390.678 181.567 390.678 182.442V182.81C390.678 183.685 391.121 184.122 392.006 184.122Z" fill="#0A0A0A"/>
<path d="M403.912 189.082C403.912 189.519 403.842 189.903 403.704 190.234C403.576 190.565 403.357 190.842 403.048 191.066C402.738 191.29 402.328 191.455 401.816 191.562C401.304 191.679 400.674 191.738 399.928 191.738C399.266 191.738 398.712 191.69 398.264 191.594C397.816 191.509 397.453 191.381 397.176 191.21C396.898 191.039 396.701 190.831 396.584 190.586C396.466 190.341 396.408 190.063 396.408 189.754C396.408 189.327 396.525 188.991 396.76 188.746C396.994 188.501 397.33 188.346 397.768 188.282V187.978C397.426 187.893 397.17 187.733 397 187.498C396.84 187.263 396.76 186.975 396.76 186.634C396.76 186.293 396.877 186.01 397.112 185.786C397.346 185.551 397.688 185.391 398.136 185.306V185.098C397.229 184.65 396.776 183.829 396.776 182.634C396.776 181.727 397.032 181.029 397.544 180.538C398.056 180.047 398.85 179.802 399.928 179.802C400.408 179.802 400.845 179.877 401.24 180.026V179.722C401.24 178.965 401.602 178.586 402.328 178.586H403.496V180.09H401.88V180.41C402.274 180.602 402.573 180.89 402.776 181.274C402.978 181.647 403.08 182.101 403.08 182.634C403.08 183.541 402.824 184.239 402.312 184.73C401.81 185.21 401.016 185.45 399.928 185.45C399.49 185.45 399.085 185.407 398.712 185.322C398.562 185.386 398.45 185.487 398.376 185.626C398.301 185.765 398.264 185.919 398.264 186.09C398.264 186.303 398.333 186.463 398.472 186.57C398.61 186.677 398.84 186.73 399.16 186.73H401.288C402.237 186.73 402.909 186.933 403.304 187.338C403.709 187.743 403.912 188.325 403.912 189.082ZM402.104 189.306C402.104 189.018 402.008 188.799 401.816 188.65C401.624 188.501 401.304 188.426 400.856 188.426H398.28C398.045 188.629 397.928 188.927 397.928 189.322C397.928 189.663 398.04 189.925 398.264 190.106C398.498 190.287 398.904 190.378 399.48 190.378H400.424C401.032 190.378 401.464 190.287 401.72 190.106C401.976 189.935 402.104 189.669 402.104 189.306ZM399.928 184.122C400.813 184.122 401.256 183.685 401.256 182.81V182.442C401.256 181.567 400.813 181.13 399.928 181.13C399.042 181.13 398.6 181.567 398.6 182.442V182.81C398.6 183.685 399.042 184.122 399.928 184.122Z" fill="#0A0A0A"/>
<path d="M405.915 178.682C405.509 178.682 405.216 178.597 405.035 178.426C404.853 178.245 404.763 178.005 404.763 177.706V177.386C404.763 177.087 404.853 176.853 405.035 176.682C405.216 176.501 405.509 176.41 405.915 176.41C406.32 176.41 406.613 176.501 406.795 176.682C406.976 176.853 407.067 177.087 407.067 177.386V177.706C407.067 178.005 406.976 178.245 406.795 178.426C406.613 178.597 406.32 178.682 405.915 178.682ZM404.955 179.994H406.891V188.346H404.955V179.994Z" fill="#0A0A0A"/>
<path d="M408.986 188.346V179.994H410.922V181.386H411.146C411.477 180.33 412.143 179.802 413.146 179.802C413.893 179.802 414.469 180.058 414.874 180.57C415.279 181.071 415.482 181.791 415.482 182.73V188.346H413.546V183.066C413.546 181.978 413.141 181.434 412.33 181.434C411.935 181.434 411.599 181.551 411.322 181.786C411.055 182.01 410.922 182.33 410.922 182.746V188.346H408.986Z" fill="#0A0A0A"/>
<path d="M424.334 189.082C424.334 189.519 424.264 189.903 424.126 190.234C423.998 190.565 423.779 190.842 423.47 191.066C423.16 191.29 422.75 191.455 422.238 191.562C421.726 191.679 421.096 191.738 420.35 191.738C419.688 191.738 419.134 191.69 418.686 191.594C418.238 191.509 417.875 191.381 417.598 191.21C417.32 191.039 417.123 190.831 417.006 190.586C416.888 190.341 416.83 190.063 416.83 189.754C416.83 189.327 416.947 188.991 417.182 188.746C417.416 188.501 417.752 188.346 418.19 188.282V187.978C417.848 187.893 417.592 187.733 417.422 187.498C417.262 187.263 417.182 186.975 417.182 186.634C417.182 186.293 417.299 186.01 417.534 185.786C417.768 185.551 418.11 185.391 418.558 185.306V185.098C417.651 184.65 417.198 183.829 417.198 182.634C417.198 181.727 417.454 181.029 417.966 180.538C418.478 180.047 419.272 179.802 420.35 179.802C420.83 179.802 421.267 179.877 421.662 180.026V179.722C421.662 178.965 422.024 178.586 422.75 178.586H423.918V180.09H422.302V180.41C422.696 180.602 422.995 180.89 423.198 181.274C423.4 181.647 423.502 182.101 423.502 182.634C423.502 183.541 423.246 184.239 422.734 184.73C422.232 185.21 421.438 185.45 420.35 185.45C419.912 185.45 419.507 185.407 419.134 185.322C418.984 185.386 418.872 185.487 418.798 185.626C418.723 185.765 418.686 185.919 418.686 186.09C418.686 186.303 418.755 186.463 418.894 186.57C419.032 186.677 419.262 186.73 419.582 186.73H421.71C422.659 186.73 423.331 186.933 423.726 187.338C424.131 187.743 424.334 188.325 424.334 189.082ZM422.526 189.306C422.526 189.018 422.43 188.799 422.238 188.65C422.046 188.501 421.726 188.426 421.278 188.426H418.702C418.467 188.629 418.35 188.927 418.35 189.322C418.35 189.663 418.462 189.925 418.686 190.106C418.92 190.287 419.326 190.378 419.902 190.378H420.846C421.454 190.378 421.886 190.287 422.142 190.106C422.398 189.935 422.526 189.669 422.526 189.306ZM420.35 184.122C421.235 184.122 421.678 183.685 421.678 182.81V182.442C421.678 181.567 421.235 181.13 420.35 181.13C419.464 181.13 419.022 181.567 419.022 182.442V182.81C419.022 183.685 419.464 184.122 420.35 184.122Z" fill="#0A0A0A"/>
<path d="M430.655 188.346C429.983 188.346 429.498 188.197 429.199 187.898C428.911 187.599 428.767 187.13 428.767 186.49V176.506H430.703V186.794H431.663V188.346H430.655Z" fill="#0A0A0A"/>
<path d="M434.008 178.682C433.603 178.682 433.31 178.597 433.128 178.426C432.947 178.245 432.857 178.005 432.857 177.706V177.386C432.857 177.087 432.947 176.853 433.128 176.682C433.31 176.501 433.603 176.41 434.008 176.41C434.414 176.41 434.707 176.501 434.888 176.682C435.07 176.853 435.16 177.087 435.16 177.386V177.706C435.16 178.005 435.07 178.245 434.888 178.426C434.707 178.597 434.414 178.682 434.008 178.682ZM433.048 179.994H434.984V188.346H433.048V179.994Z" fill="#0A0A0A"/>
<path d="M437.08 176.506H439.016V181.37H439.24C439.357 180.901 439.592 180.522 439.944 180.234C440.306 179.946 440.728 179.802 441.208 179.802C442.189 179.802 442.914 180.175 443.384 180.922C443.853 181.658 444.088 182.741 444.088 184.17C444.088 185.599 443.853 186.687 443.384 187.434C442.914 188.17 442.189 188.538 441.208 188.538C440.728 188.538 440.306 188.394 439.944 188.106C439.592 187.818 439.357 187.439 439.24 186.97H439.016V188.346H437.08V176.506ZM440.472 186.938C440.973 186.938 441.362 186.783 441.64 186.474C441.917 186.165 442.056 185.727 442.056 185.162V183.178C442.056 182.613 441.917 182.175 441.64 181.866C441.362 181.557 440.973 181.402 440.472 181.402C440.034 181.402 439.682 181.514 439.416 181.738C439.149 181.951 439.016 182.255 439.016 182.65V185.69C439.016 186.085 439.149 186.394 439.416 186.618C439.682 186.831 440.034 186.938 440.472 186.938Z" fill="#0A0A0A"/>
<path d="M445.783 188.346V179.994H447.719V181.706H447.943C448.039 181.151 448.236 180.73 448.535 180.442C448.844 180.143 449.244 179.994 449.735 179.994H450.151V181.978H449.511C448.903 181.978 448.45 182.074 448.151 182.266C447.863 182.458 447.719 182.794 447.719 183.274V188.346H445.783Z" fill="#0A0A0A"/>
<path d="M456.848 188.346C455.984 188.346 455.531 187.871 455.488 186.922H455.296C455.189 187.434 454.949 187.834 454.576 188.122C454.203 188.399 453.739 188.538 453.184 188.538C452.416 188.538 451.84 188.325 451.456 187.898C451.072 187.471 450.88 186.874 450.88 186.106C450.88 185.231 451.152 184.581 451.696 184.154C452.24 183.727 453.024 183.514 454.048 183.514H455.344V182.794C455.344 182.303 455.237 181.941 455.024 181.706C454.821 181.471 454.48 181.354 454 181.354C453.605 181.354 453.275 181.45 453.008 181.642C452.741 181.823 452.507 182.085 452.304 182.426L451.168 181.402C451.477 180.922 451.867 180.538 452.336 180.25C452.816 179.951 453.424 179.802 454.16 179.802C456.24 179.802 457.28 180.783 457.28 182.746V186.794H458.016V188.346H456.848ZM453.92 187.114C454.315 187.114 454.651 187.002 454.928 186.778C455.205 186.543 455.344 186.223 455.344 185.818V184.714H454.176C453.28 184.714 452.832 185.061 452.832 185.754V186.106C452.832 186.458 452.928 186.714 453.12 186.874C453.312 187.034 453.579 187.114 453.92 187.114Z" fill="#0A0A0A"/>
<path d="M459.517 188.346V179.994H461.453V181.706H461.677C461.773 181.151 461.971 180.73 462.269 180.442C462.579 180.143 462.979 179.994 463.469 179.994H463.885V181.978H463.245C462.637 181.978 462.184 182.074 461.885 182.266C461.597 182.458 461.453 182.794 461.453 183.274V188.346H459.517Z" fill="#0A0A0A"/>
<path d="M470.078 179.994H472.014L468.83 190.09C468.649 190.655 468.393 191.039 468.062 191.242C467.731 191.445 467.267 191.546 466.67 191.546H465.358V189.994H467.006L467.342 188.81L464.558 179.994H466.526L467.774 184.506L468.222 186.698H468.414L468.862 184.49L470.078 179.994Z" fill="#0A0A0A"/>
<path d="M474.004 185.05L473.412 180.346V177.178H475.46V180.346L474.884 185.05H474.004ZM474.436 188.538C474.01 188.538 473.7 188.447 473.508 188.266C473.316 188.074 473.22 187.818 473.22 187.498V187.114C473.22 186.794 473.316 186.543 473.508 186.362C473.7 186.17 474.01 186.074 474.436 186.074C474.863 186.074 475.172 186.17 475.364 186.362C475.556 186.543 475.652 186.794 475.652 187.114V187.498C475.652 187.818 475.556 188.074 475.364 188.266C475.172 188.447 474.863 188.538 474.436 188.538Z" fill="#0A0A0A"/>
<path d="M184.319 61.1683L201.819 57.8625C202.433 57.7493 203 58.2212 203 58.846V72.346H220.5C221.052 72.346 221.5 72.7937 221.5 73.346V85.346C221.5 85.8982 221.052 86.346 220.5 86.346H203V118.5C203 123.095 206.725 126.819 211.319 126.819C211.765 126.819 212.211 126.819 212.656 126.819C214.938 126.819 217.219 126.819 219.5 126.819C220.052 126.819 220.5 127.267 220.5 127.819V137.625C220.5 138.603 219.793 139.432 218.823 139.554C216.472 139.85 206 140.319 206 140.319H201.654C191.628 140.319 183.5 132.191 183.5 122.165V62.1518C183.5 61.6694 183.844 61.2557 184.319 61.1683Z" fill="#0A0A0A"/>
<path fill-rule="evenodd" clip-rule="evenodd" d="M140.5 72.3588C125.312 72.3588 113 84.171 113 99.3588V112.359C113 116.998 112.806 121.451 115 125.624C117.223 129.852 120.633 133.533 124 135.604C129.688 139.104 135 140.359 145 140.359C153.651 140.359 165.296 137.365 168.28 136.557C168.711 136.441 169 136.051 169 135.604V125.624C169 124.421 167.959 123.494 166.767 123.654C156.898 124.976 132 128.177 132 116.859V112.359H171C171.552 112.359 172 111.911 172 111.359V99.3588C172 85.3459 159.5 72.3588 145.5 72.3588H140.5ZM154 99.3588C154 94.6644 150.5 88.3588 145.5 88.3588H140.5C135.5 88.3588 132 94.6644 132 99.3588V100.359H154V99.3588Z" fill="#0A0A0A"/>
<path d="M66.7167 72.3459C54.1706 72.3459 44 80.5304 44 94.3459V138.346C44 139.45 44.8954 140.346 46 140.346C51 140.346 56 140.346 61 140.346C62.1046 140.346 63 139.45 63 138.346V95.3459C63 91.4799 66.134 88.3459 70 88.3459H76C79.866 88.3459 83 91.4799 83 95.3459V138.346C83 139.45 83.8954 140.346 85 140.346H100C101.105 140.346 102 139.45 102 138.346V94.3459C102 80.5304 91.8294 72.3459 79.2833 72.3459H66.7167Z" fill="#0A0A0A"/>
<path fill-rule="evenodd" clip-rule="evenodd" d="M367.5 119.226L381.404 139.478C382.049 140.418 382.674 141.343 383.287 142.251L383.288 142.252C390.584 153.052 396.188 161.346 413.5 161.346C435.5 161.346 454 138.846 458 128.846C462 118.846 466.5 106.346 454.5 79.346C453.153 76.3156 451.97 73.6295 451.081 70.9506C449.725 67.259 449 63.367 449 59.346C449 37.6883 470.038 19.7703 497.41 16.7835C491.945 14.147 487.038 12.7686 483 11.846C479.802 11.1153 475.499 10.5316 471 10.2114C458.271 9.30544 446.396 11.2512 435 17.2175C426.404 21.7179 418.964 27.8812 414 34.6322C401.856 51.148 402.5 65.1323 405.5 77.1323C407.279 84.2465 410.946 90.734 414.588 97.1777C419.567 105.986 424.5 114.712 424.5 124.846C424.5 132.346 419.5 144.346 409.5 144.346C403.72 144.346 398.087 136.118 395.065 131.703L394.902 131.464L394.732 131.217L377 104.176L397.925 73.6983C398.38 73.0348 397.905 72.1323 397.1 72.1323H381.053C380.394 72.1323 379.777 72.457 379.404 73.0003L367.5 90.3389L355.596 73.0003C355.223 72.457 354.606 72.1323 353.947 72.1323H337.9C337.095 72.1323 336.62 73.0348 337.075 73.6983L358 104.176L335.075 138.78C334.62 139.444 335.095 140.346 335.9 140.346H351.947C352.606 140.346 353.223 140.021 353.596 139.478L367.5 119.226ZM250 67.346C250 63.846 251.5 62.346 255 62.346H266C267.105 62.346 268 61.4505 268 60.346V50.346C268 49.2414 267.105 48.346 266 48.346H255C236 48.346 231 54.346 231 68.1531V138.346C231 139.451 231.895 140.346 233 140.346H248C249.105 140.346 250 139.451 250 138.346V86.346H266C267.105 86.346 268 85.4506 268 84.346V74.346C268 73.2414 267.105 72.346 266 72.346H250V67.346ZM299 71.1323C285.193 71.1323 274 82.3252 274 96.1323V115.346C274 129.153 285.193 140.346 299 140.346H307C320.807 140.346 332 129.153 332 115.346V96.1323C332 82.3252 320.807 71.1323 307 71.1323H299ZM303 87.1323C297.477 87.1323 293 91.6095 293 97.1323V114.346C293 119.869 297.477 124.346 303 124.346C308.523 124.346 313 119.869 313 114.346V97.1323C313 91.6095 308.523 87.1323 303 87.1323Z" fill="#F05A29"/>
</svg>
